<?xml version="1.0" standalone="no"?>
<!DOCTYPE svg PUBLIC "-//W3C//DTD SVG 20010904//EN"
 "http://www.w3.org/TR/2001/REC-SVG-20010904/DTD/svg10.dtd">
<svg version="1.0" xmlns="http://www.w3.org/2000/svg"
 width="200.000000pt" height="314.000000pt" viewBox="0 0 200.000000 314.000000"
 preserveAspectRatio="xMidYMid meet">
<metadata>
Created by potrace 1.10, written by Peter Selinger 2001-2011
</metadata>
<g transform="translate(0.000000,314.000000) scale(0.100000,-0.100000)"
fill="#0a0a0a" stroke="none">
<path d="M920 2865 c-94 -19 -171 -48 -258 -97 -42 -24 -81 -45 -87 -47 -5 -2
-18 -10 -27 -18 -24 -21 -169 -83 -193 -83 -12 0 -25 -4 -31 -9 -5 -5 -22 -11
-39 -13 -22 -2 -29 -8 -27 -20 2 -12 -6 -20 -23 -24 -14 -3 -25 -13 -25 -20 0
-8 -7 -17 -15 -20 -9 -4 -15 -19 -15 -38 0 -21 -8 -39 -23 -53 -20 -17 -23
-26 -18 -66 7 -51 52 -117 81 -117 9 0 29 -11 43 -26 l25 -25 26 23 c15 13 46
41 69 64 68 66 131 84 308 88 163 4 185 -2 173 -49 -3 -12 -1 -26 5 -30 6 -3
9 -11 6 -16 -4 -5 0 -9 8 -9 9 0 14 -9 13 -24 0 -13 -4 -22 -8 -19 -5 2 -8 -1
-8 -7 0 -6 -5 -8 -10 -5 -6 4 -8 12 -4 18 3 7 -2 3 -10 -7 -26 -32 -21 -75 10
-86 17 -7 31 -7 38 -1 8 7 12 4 13 -10 1 -10 -4 -19 -10 -19 -8 0 -7 -3 2 -9
8 -6 12 -18 8 -31 -4 -17 3 -31 29 -56 19 -19 34 -36 34 -39 0 -9 -59 -5 -64
4 -10 16 -80 23 -124 13 -23 -6 -45 -6 -47 -1 -6 9 -30 1 -120 -40 -73 -34
-95 -56 -64 -64 21 -6 116 15 150 34 11 6 45 9 74 8 30 -2 58 0 62 4 7 8 72
-2 88 -13 17 -11 70 -6 71 8 3 25 5 27 14 12 5 -8 12 -11 16 -7 4 3 1 13 -6
22 -8 10 -9 15 -2 15 6 0 9 6 6 14 -3 8 -1 17 5 20 6 4 13 -5 17 -19 3 -14 13
-25 23 -25 12 0 13 -2 3 -9 -14 -9 -7 -61 9 -61 11 0 7 -22 -6 -33 -6 -6 -5
-10 3 -14 10 -4 10 -9 -2 -28 -12 -19 -13 -26 -1 -48 15 -30 14 -49 -3 -70
-14 -17 -16 -48 -7 -99 7 -34 5 -37 -25 -53 -26 -14 -31 -21 -26 -41 3 -13 9
-34 12 -47 4 -17 1 -24 -10 -24 -15 0 -20 15 -17 44 2 18 -33 21 -46 4 -8 -11
-8 -22 -1 -34 5 -10 7 -25 4 -33 -3 -8 0 -26 6 -40 8 -18 9 -27 1 -32 -6 -4
-14 -26 -18 -49 -3 -23 -13 -44 -21 -47 -8 -3 -14 -16 -14 -29 0 -13 -4 -27
-9 -33 -6 -5 -13 -25 -16 -44 -12 -70 -26 -90 -66 -90 -39 0 -49 14 -49 71 0
24 -5 27 -47 33 -26 3 -51 2 -55 -2 -5 -5 0 -28 11 -53 25 -53 28 -84 6 -55
-8 11 -15 30 -15 42 0 12 -6 27 -13 33 -8 6 -22 29 -32 51 -10 22 -22 40 -27
40 -17 0 -7 -32 22 -75 16 -24 30 -50 30 -57 0 -7 7 -22 15 -32 8 -11 13 -27
10 -36 -3 -10 10 -33 35 -58 l40 -42 86 3 c72 3 87 1 92 -12 18 -49 56 -93
102 -116 55 -28 70 -48 70 -97 0 -29 6 -36 45 -58 38 -21 46 -31 57 -73 l12
-49 21 25 c62 76 59 68 42 95 -8 14 -23 27 -33 28 -34 5 -63 27 -88 65 -14 21
-56 58 -94 82 -65 42 -112 91 -112 117 0 17 62 39 95 33 28 -5 80 -33 62 -33
-12 0 19 -29 61 -57 32 -22 40 -24 74 -14 35 11 61 31 40 31 -6 0 -5 10 1 25
7 14 18 25 25 25 7 0 10 5 7 10 -10 16 29 12 51 -6 10 -8 14 -13 7 -9 -13 6
-53 -15 -53 -28 0 -4 8 -7 18 -5 13 2 17 -3 15 -24 -2 -33 -33 -79 -50 -73
-11 4 -27 -35 -18 -44 11 -10 103 48 151 94 72 71 182 227 210 298 42 107 27
203 -41 262 -33 28 -36 37 -44 105 -13 108 -6 201 23 315 55 220 70 470 36
575 -39 115 -85 222 -99 228 -9 3 -21 12 -27 20 -6 8 -15 12 -21 9 -5 -3 -20
13 -34 35 -36 62 -83 103 -163 142 -117 57 -228 69 -366 41z m-703 -422 c-4
-3 -7 0 -7 7 0 7 3 10 7 7 3 -4 3 -10 0 -14z m710 -268 c23 -23 12 -25 -22 -4
-22 14 -25 19 -12 19 10 0 25 -7 34 -15z m623 -95 c24 -24 50 -84 50 -117 0
-35 -59 -208 -78 -230 -10 -10 -30 -35 -45 -56 -23 -30 -35 -37 -55 -35 -32 4
-42 36 -17 55 15 10 16 15 6 27 -11 13 -9 21 9 46 12 16 29 30 37 30 22 0 53
29 53 49 0 25 -49 91 -67 91 -13 0 -13 2 -2 16 7 9 12 31 11 50 -2 23 2 34 11
34 50 0 93 -159 63 -235 -7 -19 -7 -19 8 -1 22 27 39 122 32 175 -4 29 -16 55
-32 72 -22 23 -30 26 -57 18 -30 -8 -40 -17 -89 -78 -23 -27 -38 -27 -38 1 0
12 19 39 45 65 40 38 51 43 90 43 31 0 51 -6 65 -20z m-553 -27 c-4 -3 -10 -3
-14 0 -3 4 0 7 7 7 7 0 10 -3 7 -7z m398 -183 c8 -12 -5 -60 -16 -60 -11 0
-23 46 -14 59 8 14 22 14 30 1z"/>
<path d="M1465 1770 c-3 -5 3 -10 14 -10 12 0 21 5 21 10 0 6 -6 10 -14 10 -8
0 -18 -4 -21 -10z"/>
<path d="M795 1890 c18 -8 18 -9 -5 -10 -23 -1 -24 -2 -7 -14 22 -17 22 -36 0
-36 -13 0 -14 -3 -5 -12 7 -7 12 -20 12 -29 0 -11 11 -20 30 -24 24 -5 37 0
70 26 22 18 40 38 40 44 0 28 -76 66 -129 64 -23 0 -24 -1 -6 -9z"/>
<path d="M645 1840 c-4 -6 -14 -9 -23 -8 -10 2 -17 -4 -17 -12 0 -8 -7 -30
-14 -48 -10 -25 -16 -30 -23 -20 -6 9 -8 3 -6 -17 4 -35 47 -57 76 -38 13 8
24 7 45 -3 28 -15 36 -7 15 15 -11 11 -10 13 5 8 35 -13 55 27 41 81 -5 18
-13 22 -46 22 -35 0 -39 2 -28 15 10 12 10 15 -3 15 -9 0 -19 -5 -22 -10z m12
-77 c-4 -3 -7 0 -7 7 0 7 3 10 7 7 3 -4 3 -10 0 -14z"/>
<path d="M335 1820 c-9 -15 4 -30 25 -30 27 0 34 17 11 29 -24 13 -28 14 -36
1z"/>
<path d="M445 1756 c17 -8 32 -12 34 -10 7 6 -2 11 -34 17 l-30 6 30 -13z"/>
<path d="M402 1731 c-27 -7 -30 -26 -4 -27 35 -2 39 -4 50 -26 l11 -23 0 22
c1 12 -4 25 -9 28 -6 4 -8 10 -5 15 7 12 -16 18 -43 11z"/>
<path d="M1046 1592 c-3 -6 -1 -14 5 -17 14 -9 20 -2 10 14 -6 8 -11 9 -15 3z"/>
<path d="M585 1550 c3 -5 15 -10 25 -10 10 0 22 -9 25 -20 3 -11 10 -20 14
-20 4 0 7 -18 8 -39 2 -34 -1 -40 -23 -45 -14 -4 -30 -18 -36 -31 -12 -27 -16
-29 -37 -16 -11 7 -20 3 -33 -11 -31 -36 -21 -79 23 -102 20 -10 27 -9 39 5
15 17 150 36 150 21 0 -9 -59 -32 -83 -32 -16 0 -25 -19 -9 -21 4 0 36 -2 72
-4 61 -3 66 -1 93 28 23 24 36 31 60 28 24 -2 29 0 23 14 -3 9 -6 22 -6 29 0
15 -50 33 -120 42 -30 4 -65 14 -76 23 l-21 17 22 26 c46 54 2 128 -77 128
-24 0 -37 -4 -33 -10z"/>
<path d="M532 1438 c-7 -7 -12 -18 -12 -25 0 -18 56 -17 64 2 3 8 13 15 23 15
15 0 16 2 3 10 -21 13 -64 12 -78 -2z"/>
</g>
</svg>
